<?xml version="1.0" standalone="no"?>
<!DOCTYPE svg PUBLIC "-//W3C//DTD SVG 20010904//EN"
 "http://www.w3.org/TR/2001/REC-SVG-20010904/DTD/svg10.dtd">
<svg version="1.0" xmlns="http://www.w3.org/2000/svg"
 width="512.000000pt" height="512.000000pt" viewBox="0 0 512.000000 512.000000"
 preserveAspectRatio="xMidYMid meet">
<metadata>
Created by potrace 1.14, written by Peter Selinger 2001-2017
</metadata>
<g transform="translate(0.000000,512.000000) scale(0.100000,-0.100000)"
fill="#000000" stroke="none">
<path d="M0 2560 l0 -2560 2560 0 2560 0 0 2560 0 2560 -2560 0 -2560 0 0
-2560z m2893 1650 c391 -77 690 -296 856 -628 65 -128 131 -377 131 -489 l0
-33 -165 0 -165 0 0 33 c0 17 -9 71 -20 119 -84 383 -360 648 -744 714 -128
23 -379 14 -491 -16 -417 -112 -689 -460 -786 -1006 -21 -113 -24 -162 -24
-394 0 -285 10 -381 61 -572 97 -366 285 -623 555 -759 292 -147 695 -140 974
16 252 141 436 411 486 713 l12 72 163 0 c189 0 172 14 149 -123 -103 -588
-493 -975 -1070 -1062 -206 -31 -474 -15 -670 40 -113 32 -308 128 -400 197
-416 312 -635 913 -595 1630 47 822 409 1357 1035 1529 195 53 494 62 708 19z"/>
</g>
</svg>
